<svg width="24" height="24" viewBox="0 0 24 24" fill="none" xmlns="http://www.w3.org/2000/svg">
<path d="M2.15 4.31808C1.99866 4.31826 1.84733 4.31926 1.696 4.32108C1.546 4.32608 1.393 4.33408 1.244 4.36108C1.01882 4.39666 0.805306 4.48521 0.621024 4.61942C0.436743 4.75363 0.286961 4.92968 0.184 5.13308C0.114 5.27108 0.07 5.41108 0.044 5.56308C0.016 5.71108 0.007 5.86308 0.004 6.01308C0.00195281 6.08273 0.000619407 6.1524 0 6.22208L0 17.7791C0 17.8491 0.002 17.9171 0.003 17.9861C0.007 18.1361 0.016 18.2891 0.043 18.4381C0.07 18.5881 0.115 18.7291 0.185 18.8671C0.322895 19.1386 0.543517 19.3592 0.815 19.4971C0.953 19.5671 1.093 19.6121 1.245 19.6391C1.393 19.6661 1.545 19.6751 1.695 19.6791L1.903 19.6821H22.097L22.304 19.6791C22.454 19.6751 22.607 19.6661 22.756 19.6391C22.906 19.6121 23.047 19.5681 23.184 19.4981C23.4562 19.3603 23.6772 19.1393 23.815 18.8671C23.885 18.7291 23.93 18.5891 23.956 18.4371C23.983 18.2891 23.992 18.1371 23.996 17.9871C23.998 17.9171 23.999 17.8491 23.999 17.7791L24 17.5331V6.22108C24 6.15108 23.998 6.08308 23.996 6.01408C23.9941 5.86262 23.9807 5.71152 23.956 5.56208C23.9082 5.26094 23.7663 4.98263 23.5508 4.76693C23.3353 4.55123 23.0571 4.40918 22.756 4.36108C22.6065 4.33644 22.4555 4.32307 22.304 4.32108C22.153 4.31681 22.002 4.3158 21.851 4.31808H2.15ZM2.15 4.83008H22.092C22.158 4.83008 22.223 4.83208 22.289 4.83308C22.404 4.83708 22.539 4.84308 22.664 4.86508C22.773 4.88508 22.864 4.91508 22.951 4.95908C23.1264 5.04812 23.269 5.19066 23.358 5.36608C23.4038 5.45673 23.4355 5.55385 23.452 5.65408C23.474 5.77708 23.48 5.91208 23.483 6.02808C23.485 6.09308 23.486 6.15808 23.486 6.22508V17.7771C23.486 17.8421 23.486 17.9071 23.483 17.9731C23.48 18.0881 23.474 18.2231 23.451 18.3481C23.4294 18.4952 23.3726 18.635 23.2856 18.7556C23.1986 18.8762 23.0838 18.9742 22.951 19.0411C22.8609 19.0866 22.7645 19.1183 22.665 19.1351C22.5416 19.1547 22.4169 19.1654 22.292 19.1671L22.092 19.1701H1.906C1.84 19.1701 1.773 19.1681 1.71 19.1671C1.58439 19.1655 1.45907 19.1548 1.335 19.1351C1.226 19.1151 1.135 19.0851 1.047 19.0411C0.871582 18.9524 0.729268 18.8097 0.641 18.6341C0.595308 18.5434 0.563616 18.4463 0.547 18.3461C0.52714 18.2227 0.516444 18.098 0.515 17.9731C0.513659 17.9074 0.512992 17.8418 0.513 17.7761V6.22408C0.513 6.15908 0.513 6.09308 0.515 6.02708C0.519 5.91308 0.525 5.77908 0.547 5.65208C0.567 5.54408 0.597 5.45308 0.641 5.36508C0.730102 5.18995 0.872655 5.04775 1.048 4.95908C1.13853 4.91382 1.23523 4.88214 1.335 4.86508C1.46 4.84308 1.595 4.83608 1.71 4.83308C1.775 4.83108 1.841 4.83108 1.906 4.83008H2.15ZM6.86 8.53008C6.56 8.54608 6.192 8.72908 5.98 8.98608C5.789 9.20608 5.62 9.56608 5.664 9.90408C6.002 9.93408 6.339 9.73508 6.552 9.48608C6.757 9.22808 6.897 8.88308 6.86 8.53108V8.53008ZM9.067 8.95008V14.4431H9.919V12.5661H11.099C12.177 12.5661 12.934 11.8271 12.934 10.7541C12.934 9.68408 12.192 8.94908 11.126 8.94908L9.067 8.95008ZM9.919 9.66908H10.901C11.64 9.66908 12.062 10.0651 12.062 10.7581C12.062 11.4501 11.64 11.8501 10.898 11.8501H9.919V9.66908ZM6.765 9.96908C6.315 9.97908 5.935 10.2491 5.715 10.2491C5.48 10.2491 5.122 9.98508 4.734 9.99208C4.48161 9.99838 4.23527 10.0706 4.01947 10.2017C3.80368 10.3328 3.62597 10.518 3.504 10.7391C2.977 11.6471 3.365 12.9941 3.878 13.7341C4.127 14.1001 4.427 14.5031 4.822 14.4881C5.195 14.4741 5.342 14.2461 5.795 14.2461C6.249 14.2461 6.381 14.4881 6.775 14.4811C7.185 14.4741 7.442 14.1151 7.69 13.7481C7.976 13.3311 8.093 12.9281 8.1 12.9071C8.093 12.8991 7.31 12.5991 7.303 11.6981C7.295 10.9441 7.918 10.5851 7.947 10.5631C7.595 10.0431 7.047 9.98508 6.857 9.97008C6.82637 9.96816 6.79568 9.96849 6.765 9.96908ZM14.969 10.3661C13.979 10.3661 13.363 10.8991 13.317 11.6221H14.094C14.166 11.2641 14.463 11.0361 14.939 11.0361C15.441 11.0361 15.742 11.3021 15.742 11.7471V12.0561L14.645 12.1201C13.694 12.1741 13.157 12.6041 13.157 13.3041C13.157 14.0241 13.705 14.5111 14.489 14.5111C15.015 14.5111 15.521 14.2301 15.753 13.7841H15.772V14.4431H16.56V11.6831C16.56 10.8801 15.94 10.3661 14.969 10.3661ZM16.909 10.4381L18.355 14.4471C18.355 14.4501 18.282 14.6871 18.282 14.6941C18.157 15.1041 17.952 15.2651 17.571 15.2651C17.502 15.2651 17.365 15.2651 17.304 15.2501V15.9161C17.364 15.9271 17.571 15.9351 17.639 15.9351C18.469 15.9351 18.865 15.6231 19.207 14.6521L20.707 10.4381H19.839L18.827 13.6971H18.812L17.799 10.4371L16.909 10.4381ZM15.742 12.6271V12.9431C15.742 13.4641 15.292 13.8601 14.718 13.8601C14.276 13.8601 13.987 13.6321 13.987 13.2811C13.987 12.9391 14.265 12.7211 14.756 12.6881L15.742 12.6271Z" fill="black"/>
</svg>
