<svg width="16" height="19" viewBox="0 0 16 19" fill="none" xmlns="http://www.w3.org/2000/svg">
<g clip-path="url(#clip0_241_763)">
<path d="M13.5728 1.47885C12.7019 0.47965 11.1276 0.0512695 9.11371 0.0512695H3.26871C3.06945 0.051277 2.87672 0.122837 2.72519 0.253083C2.57366 0.383329 2.47325 0.563719 2.44202 0.761819L0.00826875 16.2995C-0.0401063 16.6059 0.195581 16.8833 0.504081 16.8833H4.11258L5.01883 11.0971L4.99071 11.2783C5.05527 10.8693 5.40277 10.5676 5.81427 10.5676H7.52902C10.8976 10.5676 13.5353 9.19027 14.3058 5.20599C14.3287 5.08816 14.3485 4.97346 14.3656 4.86142C14.2684 4.80957 14.2684 4.80957 14.3656 4.86142C14.5951 3.38879 14.3641 2.38638 13.5728 1.47885Z" fill="#27346A"/>
<path d="M6.39958 4.33092C6.49823 4.28364 6.60613 4.25914 6.71539 4.2592H11.2978C11.8404 4.2592 12.3465 4.29475 12.809 4.36968C12.9384 4.39045 13.0672 4.41525 13.1951 4.44404C13.3764 4.48431 13.5555 4.53359 13.732 4.5917C13.9593 4.66814 14.1711 4.75717 14.3657 4.86142C14.5951 3.38822 14.3641 2.38638 13.5728 1.47885C12.7014 0.47965 11.1276 0.0512695 9.11371 0.0512695H3.26821C2.85664 0.0512695 2.50652 0.352879 2.44202 0.761819L0.00826909 16.2989C-0.0401059 16.6058 0.195582 16.8829 0.503582 16.8829H4.11258L5.99277 4.88079C6.01126 4.76282 6.05794 4.65114 6.12881 4.55535C6.19967 4.45957 6.2926 4.38255 6.39958 4.33092Z" fill="#27346A"/>
<path d="M14.3064 5.20591C13.5359 9.18962 10.8983 10.5675 7.52957 10.5675H5.81432C5.40282 10.5675 5.05526 10.8692 4.99132 11.2782L3.86388 18.4727C3.82176 18.7408 4.02776 18.9838 4.29726 18.9838H7.33913C7.51338 18.9838 7.68189 18.9211 7.81437 18.8072C7.94684 18.6932 8.03459 18.5355 8.06182 18.3622L8.09144 18.2062L8.66476 14.5486L8.70169 14.3465C8.72892 14.1732 8.81666 14.0155 8.94912 13.9015C9.08158 13.7876 9.25008 13.725 9.42432 13.7249H9.87957C12.8263 13.7249 15.1336 12.5198 15.8078 9.03466C16.0893 7.5782 15.9436 6.3622 15.1991 5.50808C14.9733 5.24938 14.6929 5.03573 14.3662 4.86133C14.3485 4.97394 14.3293 5.08807 14.3064 5.20591Z" fill="#2790C3"/>
<path d="M13.5593 4.53792C13.4391 4.50261 13.3179 4.47135 13.1956 4.44418C13.0677 4.41586 12.9389 4.39123 12.8096 4.37032C12.3466 4.29489 11.8408 4.25928 11.2977 4.25928H6.7159C6.60655 4.25903 6.49857 4.28375 6.40009 4.33157C6.29298 4.38303 6.19995 4.46001 6.12905 4.55582C6.05816 4.65163 6.01153 4.7634 5.99321 4.88143L5.01934 11.0972L4.99121 11.2784C5.05527 10.8694 5.40277 10.5677 5.81434 10.5677H7.52959C10.8982 10.5677 13.5358 9.19041 14.3063 5.20613C14.3293 5.0883 14.3485 4.97411 14.3662 4.86155C14.1711 4.75787 13.9599 4.66828 13.7325 4.59235C13.6751 4.57319 13.6174 4.55505 13.5593 4.53792" fill="#1F264F"/>
</g>
<defs>
<clipPath id="clip0_241_763">
<rect width="16" height="19" fill="white"/>
</clipPath>
</defs>
</svg>
