<svg width="40" height="40" viewBox="0 0 40 40" fill="none" xmlns="http://www.w3.org/2000/svg">
<rect width="40" height="40" rx="20" fill="#839D9A"/>
<path d="M10.9213 16.757H8.2813V15.8H14.6503V16.757H12.0103V23.5H10.9213V16.757ZM19.2169 23.588C18.4396 23.588 17.7393 23.4193 17.1159 23.082C16.4926 22.7373 16.0013 22.2643 15.6419 21.663C15.2899 21.0617 15.1139 20.3907 15.1139 19.65C15.1139 18.9093 15.2899 18.2383 15.6419 17.637C16.0013 17.0357 16.4926 16.5663 17.1159 16.229C17.7393 15.8843 18.4396 15.712 19.2169 15.712C19.9869 15.712 20.6836 15.8843 21.3069 16.229C21.9303 16.5663 22.4179 17.0357 22.7699 17.637C23.1219 18.231 23.2979 18.902 23.2979 19.65C23.2979 20.398 23.1219 21.0727 22.7699 21.674C22.4179 22.268 21.9303 22.7373 21.3069 23.082C20.6836 23.4193 19.9869 23.588 19.2169 23.588ZM19.2169 22.609C19.7816 22.609 20.2876 22.4807 20.7349 22.224C21.1896 21.9673 21.5453 21.6153 21.8019 21.168C22.0659 20.7133 22.1979 20.2073 22.1979 19.65C22.1979 19.0927 22.0659 18.5903 21.8019 18.143C21.5453 17.6883 21.1896 17.3327 20.7349 17.076C20.2876 16.8193 19.7816 16.691 19.2169 16.691C18.6523 16.691 18.1389 16.8193 17.6769 17.076C17.2223 17.3327 16.8629 17.6883 16.5989 18.143C16.3423 18.5903 16.2139 19.0927 16.2139 19.65C16.2139 20.2073 16.3423 20.7133 16.5989 21.168C16.8629 21.6153 17.2223 21.9673 17.6769 22.224C18.1389 22.4807 18.6523 22.609 19.2169 22.609ZM27.9822 15.8C28.9796 15.8 29.7642 16.0383 30.3362 16.515C30.9082 16.9917 31.1942 17.648 31.1942 18.484C31.1942 19.32 30.9082 19.9763 30.3362 20.453C29.7642 20.9297 28.9796 21.168 27.9822 21.168H26.0792V23.5H24.9792V15.8H27.9822ZM27.9492 20.211C28.6459 20.211 29.1776 20.0643 29.5442 19.771C29.9109 19.4703 30.0942 19.0413 30.0942 18.484C30.0942 17.9267 29.9109 17.5013 29.5442 17.208C29.1776 16.9073 28.6459 16.757 27.9492 16.757H26.0792V20.211H27.9492Z" fill="white"/>
</svg>
