<svg width="44" height="44" viewBox="0 0 44 44" fill="none" xmlns="http://www.w3.org/2000/svg">
<path d="M34.5583 17.2333L26.7667 9.44166L29.3792 6.82916C30.0819 6.12638 30.9454 5.77499 31.9697 5.77499C32.9939 5.77499 33.8568 6.12638 34.5583 6.82916L37.1708 9.44166C37.8736 10.1444 38.225 11.0079 38.225 12.0322C38.225 13.0564 37.8736 13.9193 37.1708 14.6208L34.5583 17.2333ZM5.5 38.5V30.7083L13.75 22.4583L4.07916 12.6958L12.7417 4.03333L22.4583 13.7958L26.7667 9.44166L34.5583 17.2333L30.25 21.5417L39.9208 31.3042L31.3042 39.9208L21.5417 30.2042L13.2917 38.5H5.5ZM16.3625 19.8458L19.8458 16.3625L17.6458 14.1625L15.4458 16.3167L12.8792 13.75L15.0333 11.55L12.6958 9.25833L9.25833 12.7417L16.3625 19.8458ZM31.2583 34.7417L34.7417 31.2583L32.4042 28.9667L30.25 31.1208L27.6375 28.5542L29.8375 26.3542L27.5917 24.1542L24.1083 27.6375L31.2583 34.7417ZM9.16666 34.8333H11.7333L29.3792 17.2333L26.7667 14.6208L9.16666 32.2667V34.8333Z" fill="#1F1F1F"/>
</svg>
