<svg width="30" height="23" viewBox="0 0 30 23" fill="none" xmlns="http://www.w3.org/2000/svg">
<path d="M29.4447 4.8667L18.7304 0.107158C18.5722 0.0368608 18.3946 0 18.214 0C18.0334 0 17.8558 0.0368608 17.6976 0.107158L6.98337 4.8667C6.81539 4.94141 6.67531 5.05116 6.57774 5.1845C6.48018 5.31784 6.42871 5.46988 6.42871 5.62477C6.42871 5.77966 6.48018 5.9317 6.57774 6.06504C6.67531 6.19838 6.81539 6.30813 6.98337 6.38284L17.1426 10.8958V20.1717L13.8898 18.7265L12.8569 20.2418L17.6976 22.3922C17.8557 22.4627 18.0334 22.4996 18.214 22.4996C18.3946 22.4996 18.5723 22.4627 18.7304 22.3922L29.4447 17.6327C29.6127 17.558 29.7529 17.4483 29.8505 17.3149C29.9481 17.1816 29.9996 17.0295 29.9997 16.8746V5.62477C29.9996 5.46986 29.9481 5.31779 29.8505 5.18445C29.7529 5.05111 29.6127 4.94137 29.4447 4.8667ZM18.214 1.85348L26.705 5.62477L18.214 9.39606L9.723 5.62477L18.214 1.85348ZM27.8568 16.3632L19.2854 20.1708V10.8949L27.8568 7.08725V16.3632Z" fill="black"/>
<path d="M8.57137 11.2498H0V9.51904H8.57137V11.2498ZM10.7142 18.1728H2.14284V16.442H10.7142V18.1728ZM12.8571 14.7113H4.28569V12.9805H12.8571V14.7113Z" fill="black"/>
</svg>
