<svg width="25" height="24" viewBox="0 0 25 24" fill="none" xmlns="http://www.w3.org/2000/svg">
<path d="M12.5 21C12.3667 21.0013 12.2354 20.969 12.1191 20.9063C11.6992 20.6813 1.95312 15.3656 1.95312 8.625C1.95313 7.44441 2.34006 6.29375 3.05913 5.336C3.77819 4.37826 4.79293 3.66199 5.9596 3.28866C7.12627 2.91532 8.38573 2.90385 9.55958 3.25586C10.7334 3.60787 11.7621 4.30553 12.5 5.25C13.2379 4.30553 14.2666 3.60787 15.4404 3.25586C16.6143 2.90385 17.8737 2.91532 19.0404 3.28866C20.2071 3.66199 21.2218 4.37826 21.9409 5.336C22.6599 6.29375 23.0469 7.44441 23.0469 8.625C23.0469 11.4938 21.3184 14.4375 17.9102 17.3813C16.3625 18.7169 14.6774 19.898 12.8809 20.9063C12.7646 20.969 12.6333 21.0013 12.5 21ZM7.8125 4.5C6.6729 4.5 5.57997 4.9346 4.77415 5.70818C3.96833 6.48177 3.51562 7.53098 3.51562 8.625C3.51562 13.8 10.7422 18.3469 12.5 19.3781C14.2578 18.3469 21.4844 13.8 21.4844 8.625C21.4853 7.6714 21.142 6.74695 20.5129 6.00894C19.8839 5.27093 19.0079 4.76495 18.034 4.57708C17.0602 4.38922 16.0486 4.53107 15.1714 4.97851C14.2942 5.42595 13.6055 6.15134 13.2227 7.03125C13.1638 7.16881 13.0637 7.28646 12.935 7.36926C12.8063 7.45207 12.6549 7.49628 12.5 7.49628C12.3451 7.49628 12.1937 7.45207 12.065 7.36926C11.9363 7.28646 11.8362 7.16881 11.7773 7.03125C11.4522 6.27962 10.9017 5.63772 10.1957 5.18703C9.4898 4.73635 8.66028 4.49721 7.8125 4.5Z" fill="#5F5F5F"/>
</svg>
