<svg width="24" height="19" viewBox="0 0 24 19" fill="none" xmlns="http://www.w3.org/2000/svg">
<g clip-path="url(#clip0_241_753)">
<path d="M15.2444 13.2556H8.75488V1.58643H15.2444V13.2556Z" fill="#6C6BBD"/>
<path d="M9.16716 7.42136C9.16716 5.05416 10.2748 2.94558 11.9998 1.58676C10.7384 0.593112 9.14625 0 7.41619 0C3.32025 0 0 3.32257 0 7.42136C0 11.5201 3.32025 14.8426 7.41619 14.8426C9.14634 14.8426 10.7384 14.2495 11.9998 13.2559C10.2748 11.897 9.16716 9.78846 9.16716 7.42136Z" fill="#D32011"/>
<path d="M24.0003 7.42136C24.0003 11.5201 20.68 14.8426 16.5841 14.8426C14.8539 14.8426 13.2619 14.2495 12 13.2559C13.7255 11.897 14.8331 9.78846 14.8331 7.42136C14.8331 5.05416 13.7255 2.94558 12 1.58676C13.2619 0.593112 14.854 0 16.5841 0C20.68 0 24.0003 3.32257 24.0003 7.42136Z" fill="#0099DF"/>
<path d="M17.4403 16.5532C17.5265 16.5532 17.6506 16.5697 17.7454 16.6069L17.6134 17.0108C17.5228 16.9736 17.4322 16.9613 17.3455 16.9613C17.0654 16.9613 16.9253 17.1424 16.9253 17.468V18.573H16.4967V16.6027H16.9211V16.8419C17.0324 16.6687 17.1932 16.5532 17.4403 16.5532ZM15.8568 16.9943H15.1565V17.8846C15.1565 18.0823 15.2263 18.2144 15.4409 18.2144C15.5522 18.2144 15.6921 18.1772 15.8195 18.1031L15.943 18.4697C15.8073 18.5645 15.5931 18.6226 15.4078 18.6226C14.9009 18.6226 14.7241 18.3503 14.7241 17.8927V16.9943H14.3242V16.6027H14.7241V16.0049H15.1565V16.6027H15.8568V16.9943ZM10.373 17.4147C10.4187 17.1302 10.5914 16.9363 10.8965 16.9363C11.1723 16.9363 11.3495 17.1094 11.3948 17.4147H10.373ZM11.84 17.5879C11.8357 16.9735 11.4566 16.5532 10.9044 16.5532C10.3278 16.5532 9.92408 16.9736 9.92408 17.5878C9.92408 18.2139 10.3443 18.6221 10.9337 18.6221C11.2303 18.6221 11.5019 18.548 11.741 18.3461L11.5307 18.0286C11.3661 18.1606 11.1558 18.2348 10.9582 18.2348C10.6823 18.2348 10.431 18.1069 10.3692 17.7526H11.8315C11.8357 17.6988 11.84 17.6454 11.84 17.5879ZM13.7225 17.1057C13.6032 17.0311 13.3603 16.9362 13.109 16.9362C12.8741 16.9362 12.734 17.0231 12.734 17.1675C12.734 17.2991 12.8822 17.3363 13.0675 17.3609L13.2694 17.3897C13.698 17.452 13.9573 17.6332 13.9573 17.9795C13.9573 18.3545 13.6277 18.6225 13.0595 18.6225C12.7379 18.6225 12.4413 18.54 12.2063 18.3668L12.4083 18.0328C12.5525 18.1441 12.7671 18.239 13.0637 18.239C13.3561 18.239 13.5126 18.1527 13.5126 17.9998C13.5126 17.8889 13.4014 17.8266 13.1665 17.7941L12.9647 17.7653C12.5238 17.703 12.2847 17.5053 12.2847 17.184C12.2847 16.7924 12.6063 16.5532 13.1047 16.5532C13.4179 16.5532 13.7022 16.6235 13.9078 16.7593L13.7225 17.1057ZM19.0063 16.9603C18.9182 16.9603 18.8366 16.9759 18.7607 17.0066C18.6872 17.0364 18.6204 17.0806 18.5645 17.1368C18.5082 17.1943 18.4639 17.2625 18.4343 17.3373C18.4027 17.4152 18.3872 17.501 18.3872 17.5945C18.3872 17.6884 18.4027 17.7737 18.4343 17.8516C18.4659 17.9294 18.5093 17.9965 18.5645 18.0521C18.6204 18.1083 18.6872 18.1526 18.7607 18.1823C18.8366 18.2135 18.9182 18.2286 19.0063 18.2286C19.0944 18.2286 19.1765 18.2136 19.2519 18.1823C19.3258 18.1527 19.3928 18.1084 19.4491 18.0521C19.5052 17.9965 19.5486 17.9294 19.5807 17.8516C19.6123 17.7737 19.6279 17.6884 19.6279 17.5945C19.6279 17.501 19.6123 17.4152 19.5807 17.3373C19.5486 17.2595 19.5052 17.1925 19.4491 17.1368C19.3928 17.0805 19.3258 17.0362 19.252 17.0066C19.1739 16.9754 19.0905 16.9597 19.0064 16.9604L19.0063 16.9603ZM19.0063 16.5532C19.1591 16.5532 19.3006 16.5796 19.4307 16.6329C19.5565 16.683 19.6713 16.7574 19.7684 16.8518C19.864 16.9456 19.9398 17.0575 19.9914 17.1811C20.0451 17.3081 20.072 17.4459 20.072 17.5945C20.072 17.743 20.0451 17.8808 19.9914 18.0078C19.9398 18.1315 19.8639 18.2436 19.7683 18.3376C19.6736 18.4305 19.5608 18.5032 19.4308 18.5565C19.3005 18.6094 19.1591 18.6358 19.0063 18.6358C18.8535 18.6358 18.712 18.6094 18.5819 18.5565C18.4518 18.5032 18.34 18.4305 18.2457 18.3376C18.1507 18.2433 18.0751 18.1313 18.0235 18.0078C17.9698 17.8808 17.9429 17.743 17.9429 17.5945C17.9429 17.4459 17.9698 17.3081 18.0235 17.1812C18.0752 17.0578 18.1507 16.9459 18.2457 16.8518C18.3422 16.7573 18.4564 16.6829 18.5819 16.6329C18.712 16.5796 18.8535 16.5532 19.0063 16.5532ZM7.87002 17.5878C7.87002 17.2416 8.09689 16.9571 8.46748 16.9571C8.82167 16.9571 9.06073 17.2293 9.06073 17.5879C9.06073 17.9464 8.82167 18.2182 8.46748 18.2182C8.09689 18.2182 7.87002 17.9341 7.87002 17.5878ZM9.46442 17.5878V16.6027H9.03617V16.8419C8.89995 16.6645 8.69436 16.5532 8.41423 16.5532C7.86205 16.5532 7.42958 16.9858 7.42958 17.5878C7.42958 18.1894 7.86205 18.6225 8.41423 18.6225C8.69436 18.6225 8.89986 18.5112 9.03617 18.3338V18.573H9.46442V17.5878ZM7.05036 18.5731V17.3365C7.05036 16.8708 6.75373 16.5575 6.27608 16.5533C6.02473 16.549 5.76486 16.6274 5.58383 16.9038C5.44798 16.6853 5.23348 16.5533 4.93264 16.5533C4.72273 16.5533 4.51667 16.6151 4.35589 16.8457V16.6028H3.92773V18.5731H4.36011V17.4809C4.36011 17.1388 4.54967 16.9572 4.84198 16.9572C5.12642 16.9572 5.2707 17.1425 5.2707 17.4766V18.5731H5.70317V17.4808C5.70317 17.1387 5.90117 16.9571 6.18505 16.9571C6.47792 16.9571 6.61798 17.1424 6.61798 17.4765V18.5731H7.05036Z" fill="#110F0D"/>
</g>
<defs>
<clipPath id="clip0_241_753">
<rect width="24" height="18.6667" fill="white"/>
</clipPath>
</defs>
</svg>
