<svg width="28" height="19" viewBox="0 0 28 19" fill="none" xmlns="http://www.w3.org/2000/svg">
<path d="M0 18.615V7.50936C0 6.89854 0.2744 6.37547 0.8232 5.94012C1.372 5.50478 2.03093 5.28748 2.8 5.28822H7V3.06708C7 2.45627 7.2744 1.93319 7.8232 1.49785C8.372 1.06251 9.03093 0.845209 9.8 0.845949H18.2C18.97 0.845949 19.6294 1.06362 20.1782 1.49896C20.727 1.93431 21.0009 2.45701 21 3.06708V5.28822H25.2C25.97 5.28822 26.6294 5.50589 27.1782 5.94123C27.727 6.37658 28.0009 6.89928 28 7.50936V18.615H0ZM2.8 16.3939H25.2V13.0622H22.4V14.1728H19.6V13.0622H8.4V14.1728H5.6V13.0622H2.8V16.3939ZM2.8 7.50936V10.8411H5.6V9.73049H8.4V10.8411H19.6V9.73049H22.4V10.8411H25.2V7.50936H2.8ZM9.8 5.28822H18.2V3.06708H9.8V5.28822Z" fill="black"/>
</svg>
