<svg width="100" height="100" viewBox="0 0 100 100" fill="none" xmlns="http://www.w3.org/2000/svg">
<path d="M34.7083 44.6249C36.0234 44.6249 37.2845 44.1025 38.2144 43.1727C39.1443 42.2428 39.6667 40.9816 39.6667 39.6666C39.6667 38.3516 39.1443 37.0904 38.2144 36.1605C37.2845 35.2306 36.0234 34.7083 34.7083 34.7083C33.3933 34.7083 32.1321 35.2306 31.2023 36.1605C30.2724 37.0904 29.75 38.3516 29.75 39.6666C29.75 40.9816 30.2724 42.2428 31.2023 43.1727C32.1321 44.1025 33.3933 44.6249 34.7083 44.6249ZM59.5 74.3749C59.5 71.7449 58.4552 69.2225 56.5955 67.3628C54.7357 65.503 52.2134 64.4583 49.5833 64.4583C46.9533 64.4583 44.4309 65.503 42.5712 67.3628C40.7115 69.2225 39.6667 71.7449 39.6667 74.3749H29.75C29.75 69.1148 31.8396 64.0701 35.559 60.3506C39.2785 56.6312 44.3232 54.5416 49.5833 54.5416C54.8435 54.5416 59.8881 56.6312 63.6076 60.3506C67.3271 64.0701 69.4167 69.1148 69.4167 74.3749H59.5ZM69.4167 39.6666C69.4167 40.9816 68.8943 42.2428 67.9644 43.1727C67.0345 44.1025 65.7734 44.6249 64.4583 44.6249C63.1433 44.6249 61.8821 44.1025 60.9523 43.1727C60.0224 42.2428 59.5 40.9816 59.5 39.6666C59.5 38.3516 60.0224 37.0904 60.9523 36.1605C61.8821 35.2306 63.1433 34.7083 64.4583 34.7083C65.7734 34.7083 67.0345 35.2306 67.9644 36.1605C68.8943 37.0904 69.4167 38.3516 69.4167 39.6666Z" fill="#9E9E9E"/>
<path fill-rule="evenodd" clip-rule="evenodd" d="M99.1667 49.5833C99.1667 76.9682 76.9682 99.1667 49.5833 99.1667C22.1985 99.1667 0 76.9682 0 49.5833C0 22.1985 22.1985 0 49.5833 0C76.9682 0 99.1667 22.1985 99.1667 49.5833ZM89.25 49.5833C89.25 60.1036 85.0708 70.193 77.6319 77.6319C70.193 85.0708 60.1036 89.25 49.5833 89.25C39.0631 89.25 28.9737 85.0708 21.5348 77.6319C14.0958 70.193 9.91667 60.1036 9.91667 49.5833C9.91667 39.0631 14.0958 28.9737 21.5348 21.5348C28.9737 14.0958 39.0631 9.91667 49.5833 9.91667C60.1036 9.91667 70.193 14.0958 77.6319 21.5348C85.0708 28.9737 89.25 39.0631 89.25 49.5833Z" fill="#9E9E9E"/>
</svg>
