<svg width="30" height="10" viewBox="0 0 30 10" fill="none" xmlns="http://www.w3.org/2000/svg">
<g clip-path="url(#clip0_241_768)">
<path d="M15.5153 3.18406C15.4982 4.57153 16.718 5.34574 17.6368 5.80611C18.5809 6.27839 18.898 6.58129 18.8943 7.0037C18.8872 7.65008 18.1412 7.93538 17.4431 7.94647C16.2252 7.96586 15.517 7.60839 14.9541 7.33803L14.5153 9.44876C15.0802 9.71635 16.1261 9.94972 17.2106 9.95996C19.7565 9.95996 21.4221 8.66791 21.4311 6.66466C21.4411 4.12225 18.0107 3.98153 18.0341 2.84514C18.0422 2.50056 18.362 2.13285 19.0628 2.03936C19.4096 1.99213 20.3672 1.95599 21.4528 2.46996L21.8789 0.427793C21.2951 0.209238 20.5447 -3.91006e-05 19.6105 -3.91006e-05C17.2143 -3.91006e-05 15.5289 1.3096 15.5153 3.18406ZM25.9732 0.175864C25.5083 0.175864 25.1166 0.454659 24.9417 0.88249L21.305 9.80996H23.8491L24.3553 8.37153H27.4641L27.7577 9.80996H30L28.0433 0.175864H25.9732ZM26.3291 2.77839L27.0633 6.39611H25.0526L26.3291 2.77839ZM12.4308 0.175984L10.4255 9.80984H12.8497L14.8541 0.175744H12.4308M8.84449 0.175744L6.32121 6.73321L5.30051 1.15767C5.18074 0.535262 4.70777 0.175864 4.18254 0.175864H0.0577734L0 0.455624C0.846797 0.644539 1.80891 0.949238 2.3918 1.27526C2.74852 1.47442 2.85023 1.64851 2.96742 2.12177L4.90066 9.80996H7.4625L11.3902 0.175864L8.84449 0.175744Z" fill="url(#paint0_linear_241_768)"/>
</g>
<defs>
<linearGradient id="paint0_linear_241_768" x1="1379.22" y1="29.9397" x2="1408.86" y2="-992.921" gradientUnits="userSpaceOnUse">
<stop stop-color="#222357"/>
<stop offset="1" stop-color="#254AA5"/>
</linearGradient>
<clipPath id="clip0_241_768">
<rect width="30" height="10" fill="white"/>
</clipPath>
</defs>
</svg>
